<svg xmlns="http://www.w3.org/2000/svg" width="512" height="512" viewBox="0 0 64 64" shape-rendering="crispEdges">
<rect width="100%" height="100%" fill="none"/>
<rect x="16" y="18" width="16" height="1" fill="#0E5FA8"/>
<rect x="32" y="18" width="16" height="1" fill="#2C83C8"/>
<rect x="16" y="19" width="16" height="1" fill="#0E5FA8"/>
<rect x="32" y="19" width="16" height="1" fill="#2C83C8"/>
<rect x="16" y="20" width="16" height="1" fill="#0E5FA8"/>
<rect x="32" y="20" width="16" height="1" fill="#2C83C8"/>
<rect x="16" y="21" width="16" height="1" fill="#0E5FA8"/>
<rect x="32" y="21" width="16" height="1" fill="#2C83C8"/>
<rect x="16" y="22" width="16" height="1" fill="#0E5FA8"/>
<rect x="32" y="22" width="16" height="1" fill="#2C83C8"/>
<rect x="16" y="23" width="16" height="1" fill="#0E5FA8"/>
<rect x="32" y="23" width="16" height="1" fill="#2C83C8"/>
<rect x="16" y="24" width="16" height="1" fill="#0E5FA8"/>
<rect x="32" y="24" width="16" height="1" fill="#2C83C8"/>
<rect x="16" y="25" width="16" height="1" fill="#0E5FA8"/>
<rect x="32" y="25" width="16" height="1" fill="#2C83C8"/>
<rect x="16" y="26" width="16" height="1" fill="#0E5FA8"/>
<rect x="32" y="26" width="16" height="1" fill="#2C83C8"/>
<rect x="16" y="27" width="16" height="1" fill="#0E5FA8"/>
<rect x="32" y="27" width="16" height="1" fill="#2C83C8"/>
<rect x="16" y="28" width="16" height="1" fill="#0E5FA8"/>
<rect x="32" y="28" width="16" height="1" fill="#2C83C8"/>
<rect x="16" y="29" width="16" height="1" fill="#0E5FA8"/>
<rect x="32" y="29" width="16" height="1" fill="#2C83C8"/>
<rect x="16" y="30" width="16" height="1" fill="#0E5FA8"/>
<rect x="32" y="30" width="16" height="1" fill="#2C83C8"/>
<rect x="16" y="31" width="16" height="1" fill="#0E5FA8"/>
<rect x="32" y="31" width="16" height="1" fill="#2C83C8"/>
<rect x="16" y="32" width="16" height="1" fill="#0E5FA8"/>
<rect x="32" y="32" width="16" height="1" fill="#2C83C8"/>
<rect x="16" y="33" width="16" height="1" fill="#0E5FA8"/>
<rect x="32" y="33" width="16" height="1" fill="#2C83C8"/>
<rect x="16" y="34" width="16" height="1" fill="#0E5FA8"/>
<rect x="32" y="34" width="16" height="1" fill="#2C83C8"/>
<rect x="16" y="35" width="16" height="1" fill="#0E5FA8"/>
<rect x="32" y="35" width="16" height="1" fill="#2C83C8"/>
<rect x="16" y="36" width="16" height="1" fill="#0E5FA8"/>
<rect x="32" y="36" width="16" height="1" fill="#2C83C8"/>
<rect x="16" y="37" width="16" height="1" fill="#0E5FA8"/>
<rect x="32" y="37" width="16" height="1" fill="#2C83C8"/>
<rect x="16" y="38" width="16" height="1" fill="#0E5FA8"/>
<rect x="32" y="38" width="16" height="1" fill="#2C83C8"/>
<rect x="16" y="39" width="16" height="1" fill="#0E5FA8"/>
<rect x="32" y="39" width="16" height="1" fill="#2C83C8"/>
<rect x="16" y="40" width="16" height="1" fill="#0E5FA8"/>
<rect x="32" y="40" width="16" height="1" fill="#2C83C8"/>
<rect x="16" y="41" width="16" height="1" fill="#0E5FA8"/>
<rect x="32" y="41" width="16" height="1" fill="#2C83C8"/>
<rect x="16" y="42" width="16" height="1" fill="#0E5FA8"/>
<rect x="32" y="42" width="16" height="1" fill="#2C83C8"/>
<rect x="16" y="43" width="16" height="1" fill="#0E5FA8"/>
<rect x="32" y="43" width="16" height="1" fill="#2C83C8"/>
<rect x="16" y="44" width="16" height="1" fill="#0E5FA8"/>
<rect x="32" y="44" width="16" height="1" fill="#2C83C8"/>
<rect x="16" y="45" width="16" height="1" fill="#0E5FA8"/>
<rect x="32" y="45" width="16" height="1" fill="#2C83C8"/>
<rect x="17" y="46" width="15" height="1" fill="#0E5FA8"/>
<rect x="32" y="46" width="15" height="1" fill="#2C83C8"/>
<rect x="18" y="47" width="14" height="1" fill="#0E5FA8"/>
<rect x="32" y="47" width="14" height="1" fill="#2C83C8"/>
<rect x="20" y="48" width="12" height="1" fill="#0E5FA8"/>
<rect x="32" y="48" width="12" height="1" fill="#2C83C8"/>
<rect x="23" y="49" width="9" height="1" fill="#0E5FA8"/>
<rect x="32" y="49" width="9" height="1" fill="#2C83C8"/>
<rect x="20" y="10" width="12" height="1" fill="#B7D430"/>
<rect x="32" y="10" width="12" height="1" fill="#B7D430"/>
<rect x="18" y="11" width="14" height="1" fill="#B7D430"/>
<rect x="32" y="11" width="14" height="1" fill="#B7D430"/>
<rect x="16" y="12" width="16" height="1" fill="#B7D430"/>
<rect x="32" y="12" width="16" height="1" fill="#B7D430"/>
<rect x="15" y="13" width="17" height="1" fill="#B7D430"/>
<rect x="32" y="13" width="17" height="1" fill="#B7D430"/>
<rect x="15" y="14" width="17" height="1" fill="#B7D430"/>
<rect x="32" y="14" width="17" height="1" fill="#B7D430"/>
<rect x="16" y="15" width="16" height="1" fill="#B7D430"/>
<rect x="32" y="15" width="16" height="1" fill="#B7D430"/>
<rect x="18" y="16" width="14" height="1" fill="#B7D430"/>
<rect x="32" y="16" width="14" height="1" fill="#B7D430"/>
<rect x="21" y="17" width="11" height="1" fill="#B7D430"/>
<rect x="32" y="17" width="11" height="1" fill="#B7D430"/>
<rect x="20" y="14" width="12" height="1" fill="#7FB700"/>
<rect x="32" y="14" width="12" height="1" fill="#7FB700"/>
<rect x="19" y="15" width="13" height="1" fill="#7FB700"/>
<rect x="32" y="15" width="13" height="1" fill="#7FB700"/>
<rect x="21" y="16" width="11" height="1" fill="#7FB700"/>
<rect x="32" y="16" width="11" height="1" fill="#7FB700"/>
<rect x="16" y="17" width="32" height="1" fill="#F2F2F2"/>
<rect x="16" y="18" width="32" height="1" fill="#F2F2F2"/>
<rect x="17" y="19" width="30" height="1" fill="#F2F2F2"/>
<rect x="18" y="18" width="28" height="1" fill="#F2F2F2"/>
<rect x="20" y="19" width="24" height="1" fill="#F2F2F2"/>
<rect x="23" y="20" width="18" height="1" fill="#F2F2F2"/>
<rect x="27" y="21" width="10" height="1" fill="#F2F2F2"/>
<rect x="35" y="30" width="1" height="1" fill="#F2F2F2"/>
<rect x="25" y="35" width="1" height="1" fill="#F2F2F2"/>
<rect x="24" y="33" width="1" height="1" fill="#F2F2F2"/>
<rect x="33" y="36" width="1" height="1" fill="#F2F2F2"/>
<rect x="25" y="32" width="1" height="1" fill="#F2F2F2"/>
<rect x="35" y="33" width="1" height="1" fill="#F2F2F2"/>
<rect x="24" y="36" width="1" height="1" fill="#F2F2F2"/>
<rect x="35" y="36" width="1" height="1" fill="#F2F2F2"/>
<rect x="44" y="36" width="1" height="1" fill="#F2F2F2"/>
<rect x="39" y="30" width="1" height="1" fill="#F2F2F2"/>
<rect x="21" y="28" width="1" height="1" fill="#F2F2F2"/>
<rect x="29" y="29" width="1" height="1" fill="#F2F2F2"/>
<rect x="20" y="32" width="1" height="1" fill="#F2F2F2"/>
<rect x="29" y="35" width="1" height="1" fill="#F2F2F2"/>
<rect x="29" y="32" width="1" height="1" fill="#F2F2F2"/>
<rect x="23" y="28" width="1" height="1" fill="#F2F2F2"/>
<rect x="20" y="29" width="1" height="1" fill="#F2F2F2"/>
<rect x="22" y="32" width="1" height="1" fill="#F2F2F2"/>
<rect x="34" y="28" width="1" height="1" fill="#F2F2F2"/>
<rect x="39" y="33" width="1" height="1" fill="#F2F2F2"/>
<rect x="22" y="29" width="1" height="1" fill="#F2F2F2"/>
<rect x="39" y="36" width="1" height="1" fill="#F2F2F2"/>
<rect x="36" y="37" width="1" height="1" fill="#F2F2F2"/>
<rect x="25" y="28" width="1" height="1" fill="#F2F2F2"/>
<rect x="30" y="36" width="1" height="1" fill="#F2F2F2"/>
<rect x="35" y="32" width="1" height="1" fill="#F2F2F2"/>
<rect x="41" y="36" width="1" height="1" fill="#F2F2F2"/>
<rect x="35" y="29" width="1" height="1" fill="#F2F2F2"/>
<rect x="32" y="36" width="1" height="1" fill="#F2F2F2"/>
<rect x="35" y="35" width="1" height="1" fill="#F2F2F2"/>
<rect x="25" y="34" width="1" height="1" fill="#F2F2F2"/>
<rect x="24" y="32" width="1" height="1" fill="#F2F2F2"/>
<rect x="43" y="36" width="1" height="1" fill="#F2F2F2"/>
<rect x="39" y="32" width="1" height="1" fill="#F2F2F2"/>
<rect x="29" y="31" width="1" height="1" fill="#F2F2F2"/>
<rect x="20" y="28" width="1" height="1" fill="#F2F2F2"/>
<rect x="31" y="28" width="1" height="1" fill="#F2F2F2"/>
<rect x="39" y="29" width="1" height="1" fill="#F2F2F2"/>
<rect x="29" y="34" width="1" height="1" fill="#F2F2F2"/>
<rect x="20" y="31" width="1" height="1" fill="#F2F2F2"/>
<rect x="22" y="28" width="1" height="1" fill="#F2F2F2"/>
<rect x="39" y="35" width="1" height="1" fill="#F2F2F2"/>
<rect x="21" y="36" width="1" height="1" fill="#F2F2F2"/>
<rect x="23" y="33" width="1" height="1" fill="#F2F2F2"/>
<rect x="23" y="36" width="1" height="1" fill="#F2F2F2"/>
<rect x="34" y="36" width="1" height="1" fill="#F2F2F2"/>
<rect x="33" y="28" width="1" height="1" fill="#F2F2F2"/>
<rect x="24" y="28" width="1" height="1" fill="#F2F2F2"/>
<rect x="25" y="33" width="1" height="1" fill="#F2F2F2"/>
<rect x="35" y="31" width="1" height="1" fill="#F2F2F2"/>
<rect x="25" y="36" width="1" height="1" fill="#F2F2F2"/>
<rect x="35" y="34" width="1" height="1" fill="#F2F2F2"/>
<rect x="29" y="30" width="1" height="1" fill="#F2F2F2"/>
<rect x="39" y="28" width="1" height="1" fill="#F2F2F2"/>
<rect x="39" y="34" width="1" height="1" fill="#F2F2F2"/>
<rect x="29" y="33" width="1" height="1" fill="#F2F2F2"/>
<rect x="20" y="30" width="1" height="1" fill="#F2F2F2"/>
<rect x="39" y="31" width="1" height="1" fill="#F2F2F2"/>
<rect x="21" y="29" width="1" height="1" fill="#F2F2F2"/>
<rect x="40" y="36" width="1" height="1" fill="#F2F2F2"/>
<rect x="21" y="32" width="1" height="1" fill="#F2F2F2"/>
<rect x="23" y="29" width="1" height="1" fill="#F2F2F2"/>
<rect x="20" y="36" width="1" height="1" fill="#F2F2F2"/>
<rect x="22" y="33" width="1" height="1" fill="#F2F2F2"/>
<rect x="31" y="36" width="1" height="1" fill="#F2F2F2"/>
<rect x="23" y="32" width="1" height="1" fill="#F2F2F2"/>
<rect x="34" y="35" width="1" height="1" fill="#F2F2F2"/>
<rect x="22" y="36" width="1" height="1" fill="#F2F2F2"/>
<rect x="30" y="28" width="1" height="1" fill="#F2F2F2"/>
<rect x="32" y="28" width="1" height="1" fill="#F2F2F2"/>
<rect x="42" y="36" width="1" height="1" fill="#F2F2F2"/>
</svg>